<svg width="668" height="82" viewBox="0 0 668 82" fill="none" xmlns="http://www.w3.org/2000/svg">
<g clip-path="url(#clip0_511_23)">
<path d="M431.029 13.5398C430.471 13.5558 429.914 13.4942 429.374 13.3569C428.973 13.2493 428.598 13.0626 428.271 12.8079C427.997 12.5572 427.79 12.2429 427.667 11.893C427.534 11.4883 427.472 11.0639 427.483 10.6383V5.75023C427.47 5.33305 427.532 4.91688 427.667 4.52167C427.79 4.17182 427.997 3.85754 428.271 3.60678C428.59 3.33389 428.967 3.13719 429.374 3.03171C429.917 2.90721 430.472 2.84581 431.029 2.84873H440.72V4.9399H431.029C430.663 4.91221 430.297 4.99414 429.978 5.17516C429.873 5.25332 429.789 5.35644 429.734 5.47513C429.679 5.59383 429.654 5.72434 429.663 5.85479V10.4554C429.657 10.5855 429.682 10.7153 429.737 10.8336C429.792 10.9519 429.875 11.0553 429.978 11.135C430.304 11.2939 430.666 11.3659 431.029 11.3441H440.746V13.4353L431.029 13.5398Z" fill="white"/>
<path d="M447.075 13.5407V4.94078H441.481V2.84961H454.744V4.94078H449.098V13.5407H447.075Z" fill="white"/>
<path d="M455.9 13.5407V2.84961H469.031V4.94078H457.922V6.35232H467.009V8.31279H457.922V11.4495H469.057V13.5407H455.9Z" fill="white"/>
<path d="M470.738 13.5407V2.84963H480.456C481.012 2.84832 481.567 2.9097 482.11 3.03261C482.517 3.13809 482.894 3.33479 483.213 3.60768C483.487 3.85844 483.695 4.17272 483.817 4.52257C483.952 4.91778 484.014 5.33394 484.001 5.75113V7.16267C484.012 7.58827 483.95 8.01261 483.817 8.41737C483.688 8.75642 483.481 9.06076 483.213 9.30612C482.894 9.579 482.517 9.77571 482.11 9.88119C481.57 10.0169 481.013 10.0785 480.456 10.0642H472.866V13.5407H470.738ZM472.866 8.10369H480.456C480.818 8.12551 481.18 8.05346 481.506 7.89458C481.61 7.81486 481.692 7.71146 481.747 7.59315C481.802 7.47484 481.828 7.3451 481.821 7.21495V5.85569C481.83 5.72523 481.805 5.59473 481.75 5.47603C481.695 5.35733 481.611 5.25422 481.506 5.17606C481.187 4.99504 480.822 4.9131 480.456 4.9408H472.866V8.10369Z" fill="white"/>
<path d="M484.579 13.5407V11.4495H486.339L490.541 2.84961H497.763V13.5407H495.662V4.94078H491.959L487.757 13.5407H484.579Z" fill="white"/>
<path d="M501.387 13.4617L501.046 13.6446H500.678C500.422 13.6396 500.178 13.5367 499.995 13.3571C499.891 13.2562 499.812 13.1334 499.762 12.9976C499.712 12.8619 499.693 12.7168 499.707 12.5729V2.84897H501.808V10.4556L511.236 2.87511C511.344 2.78872 511.469 2.72633 511.604 2.69213C511.725 2.66512 511.85 2.66512 511.971 2.69213C512.224 2.69263 512.467 2.7857 512.654 2.95353C512.85 3.17768 512.953 3.46714 512.943 3.76386V13.5401H510.842V5.88117L501.387 13.4617Z" fill="white"/>
<path d="M519.614 13.5407V4.94078H514.046V2.84961H527.178V4.94078H521.61V13.5407H519.614Z" fill="white"/>
<path d="M528.412 13.5408V6.48305C528.391 6.00043 528.471 5.51873 528.647 5.06866C528.824 4.6186 529.092 4.21006 529.436 3.86909C530.325 3.18081 531.439 2.84546 532.562 2.92806H537.525C538.641 2.83922 539.749 3.1756 540.624 3.86909C540.973 4.2078 541.246 4.61533 541.427 5.0655C541.608 5.51567 541.693 5.99853 541.675 6.48305V13.5408H539.548V10.1426H530.513V13.5408H528.412ZM530.513 8.31283H539.548V6.48305C539.577 6.25747 539.577 6.029 539.548 5.80342C539.474 5.62119 539.357 5.45965 539.206 5.33291C539.024 5.18568 538.807 5.08677 538.576 5.04537C538.244 5.01253 537.91 5.01253 537.578 5.04537H532.64C532.317 5.01252 531.992 5.01252 531.669 5.04537C531.438 5.08677 531.221 5.18568 531.038 5.33291C530.88 5.45242 530.761 5.61625 530.697 5.80342C530.655 6.02803 530.655 6.25844 530.697 6.48305L530.513 8.31283Z" fill="white"/>
<path d="M543.644 13.5399V3.71135C543.631 3.5714 543.65 3.43021 543.7 3.29874C543.75 3.16727 543.83 3.04907 543.933 2.95331C544.137 2.79887 544.386 2.71612 544.642 2.71805H545.141C545.312 2.78886 545.464 2.89593 545.588 3.03172L553.02 11.0827L560.453 3.03172C560.572 2.89069 560.726 2.78265 560.899 2.71805C561.065 2.69294 561.233 2.69294 561.398 2.71805C561.654 2.71612 561.904 2.79887 562.107 2.95331C562.206 3.05234 562.283 3.17104 562.333 3.30166C562.383 3.43228 562.404 3.57189 562.396 3.71135V13.5399H560.295V6.29918L553.782 13.383C553.683 13.4837 553.564 13.5634 553.433 13.6173C553.302 13.6712 553.162 13.6982 553.02 13.6967C552.878 13.7014 552.737 13.6759 552.605 13.6218C552.474 13.5677 552.356 13.4863 552.259 13.383L545.745 6.29918V13.5399H543.644Z" fill="white"/>
<path d="M564.208 13.5408V6.48305C564.187 6.00043 564.267 5.51873 564.444 5.06866C564.62 4.6186 564.889 4.21006 565.233 3.86909C566.121 3.18081 567.235 2.84546 568.358 2.92806H573.322C574.437 2.83922 575.545 3.1756 576.421 3.86909C576.773 4.20478 577.05 4.61179 577.231 5.0627C577.412 5.51361 577.494 5.99794 577.471 6.48305V13.5408H575.344V10.1426H566.309V13.5408H564.208ZM566.309 8.31283H575.344V6.48305C575.374 6.25747 575.374 6.029 575.344 5.80342C575.27 5.62119 575.153 5.45965 575.002 5.33291C574.82 5.18568 574.603 5.08677 574.372 5.04537C574.04 5.01253 573.706 5.01253 573.374 5.04537H568.463C568.131 5.01109 567.797 5.01109 567.465 5.04537C567.234 5.08677 567.017 5.18568 566.835 5.33291C566.676 5.45242 566.557 5.61625 566.493 5.80342C566.464 6.029 566.464 6.25747 566.493 6.48305L566.309 8.31283Z" fill="white"/>
<path d="M579.362 13.5407V2.84961H581.463V6.87511H582.75L589.29 2.84961H593.282L584.878 7.84228L593.807 13.5669H589.894L582.75 8.75716H581.463V13.5407H579.362Z" fill="white"/>
<path d="M597.589 13.5398C597.031 13.5558 596.474 13.4942 595.934 13.3569C595.533 13.2493 595.158 13.0626 594.831 12.8079C594.557 12.5572 594.35 12.2429 594.227 11.893C594.107 11.4855 594.045 11.0631 594.043 10.6383V5.75023C594.043 5.33391 594.105 4.91988 594.227 4.52167C594.35 4.17182 594.557 3.85754 594.831 3.60678C595.15 3.33389 595.527 3.13719 595.934 3.03171C596.477 2.90721 597.032 2.84581 597.589 2.84873H607.28V4.9399H597.589C597.223 4.91533 596.858 4.99707 596.538 5.17516C596.433 5.25332 596.349 5.35644 596.294 5.47513C596.239 5.59383 596.215 5.72434 596.223 5.85479V10.4554C596.217 10.5855 596.242 10.7153 596.297 10.8336C596.352 10.9519 596.435 11.0553 596.538 11.135C596.865 11.2906 597.226 11.3625 597.589 11.3441H607.306V13.4353L597.589 13.5398Z" fill="white"/>
<path d="M608.882 13.5407V2.84961H610.983V6.87511H612.27L618.809 2.84961H622.827L614.397 7.84228L623.326 13.5669H619.44L612.27 8.75716H610.983V13.5407H608.882Z" fill="white"/>
<path d="M625.349 13.4624L624.981 13.6454H624.613C624.358 13.6353 624.115 13.5331 623.931 13.3578C623.832 13.253 623.756 13.1296 623.706 12.9949C623.657 12.8602 623.635 12.7169 623.642 12.5736V2.84971H625.743V10.4563L635.197 2.87585C635.296 2.78997 635.413 2.72741 635.539 2.69287C635.66 2.66748 635.785 2.66748 635.906 2.69287C636.16 2.68814 636.405 2.78192 636.589 2.95426C636.691 3.06216 636.769 3.18987 636.819 3.32933C636.869 3.46879 636.889 3.61699 636.878 3.76459V13.5408H634.777V5.8819L625.349 13.4624Z" fill="white"/>
<path d="M640.503 13.4619L640.161 13.6449H639.793C639.666 13.6452 639.54 13.6199 639.423 13.5705C639.305 13.5211 639.199 13.4486 639.111 13.3573C639.007 13.2564 638.927 13.1336 638.877 12.9979C638.827 12.8622 638.808 12.717 638.822 12.5732V2.84922H640.923V10.4558L650.351 2.87536C650.459 2.78897 650.585 2.72658 650.719 2.69238C650.831 2.66754 650.948 2.66754 651.06 2.69238C651.322 2.6863 651.575 2.77981 651.769 2.95378C651.965 3.17792 652.068 3.46739 652.058 3.76411V13.5403H649.957V5.88141L640.503 13.4619ZM645.072 2.16959C644.758 2.1786 644.448 2.0969 644.179 1.93433C643.941 1.78484 643.736 1.58928 643.575 1.35926C643.439 1.13903 643.333 0.901674 643.26 0.653491C643.226 0.436973 643.226 0.216518 643.26 0L644.363 0C644.338 0.147039 644.338 0.297335 644.363 0.444374C644.388 0.609113 644.441 0.768319 644.521 0.914887C644.614 1.04709 644.729 1.16209 644.862 1.2547C645.013 1.34347 645.186 1.38872 645.361 1.3854H645.703C645.833 1.36854 645.959 1.32397 646.07 1.2547C646.195 1.1614 646.302 1.04625 646.385 0.914887C646.385 0.758049 646.385 0.627351 646.543 0.444374C646.556 0.296518 646.556 0.147856 646.543 0L647.62 0C647.641 0.217316 647.641 0.436174 647.62 0.653491C647.57 0.909429 647.462 1.15073 647.305 1.35926C647.153 1.58808 646.957 1.78377 646.727 1.93433C646.47 2.1008 646.167 2.18305 645.86 2.16959H645.072Z" fill="white"/>
<path d="M427.536 35.262V25.4335C427.527 25.2916 427.551 25.1498 427.606 25.0185C427.661 24.8872 427.744 24.7699 427.851 24.6754C428.042 24.5135 428.283 24.4213 428.534 24.414C428.699 24.3867 428.868 24.3867 429.033 24.414C429.204 24.4691 429.358 24.5683 429.479 24.7016L436.912 32.7787L444.37 24.7016C444.481 24.5692 444.627 24.4698 444.791 24.414C444.965 24.3894 445.142 24.3894 445.316 24.414C445.567 24.4213 445.808 24.5135 445.999 24.6754C446.105 24.7699 446.189 24.8872 446.244 25.0185C446.298 25.1498 446.322 25.2916 446.314 25.4335V35.262H444.187V28.0213L437.673 35.1051C437.577 35.2098 437.459 35.2921 437.328 35.3463C437.196 35.4005 437.054 35.4253 436.912 35.4188C436.774 35.4232 436.636 35.3974 436.509 35.3432C436.382 35.289 436.268 35.2077 436.176 35.1051L429.663 28.0213V35.262H427.536Z" fill="white"/>
<path d="M448.231 35.2624V24.5713H450.332V27.9956H459.393V24.5713H461.494V35.2624H459.393V30.0345H450.332V35.2624H448.231Z" fill="white"/>
<path d="M466.904 35.2619C466.347 35.2779 465.79 35.2163 465.249 35.079C464.846 34.9771 464.47 34.7899 464.146 34.53C463.878 34.2747 463.671 33.9618 463.542 33.6151C463.41 33.2104 463.347 32.786 463.358 32.3604V27.4723C463.347 27.0467 463.41 26.6224 463.542 26.2176C463.671 25.8786 463.878 25.5742 464.146 25.3289C464.462 25.052 464.841 24.8547 465.249 24.7538C465.79 24.6164 466.347 24.5548 466.904 24.5708H473.049C473.615 24.5567 474.181 24.6183 474.73 24.7538C475.13 24.8586 475.499 25.0556 475.807 25.3289C476.092 25.5595 476.302 25.8686 476.411 26.2176C476.553 26.6207 476.624 27.0452 476.621 27.4723V32.3604C476.624 32.7876 476.553 33.2121 476.411 33.6151C476.303 33.9716 476.093 34.2893 475.807 34.53C475.493 34.7894 475.125 34.9768 474.73 35.079C474.181 35.2145 473.615 35.276 473.049 35.2619H466.904ZM465.512 32.282C465.508 32.4109 465.538 32.5385 465.598 32.6528C465.657 32.7672 465.745 32.8645 465.853 32.9355C466.17 33.1213 466.538 33.2035 466.904 33.1708H473.076C473.441 33.1953 473.806 33.1136 474.126 32.9355C474.231 32.8632 474.316 32.7649 474.371 32.6503C474.426 32.5357 474.45 32.4088 474.441 32.282V27.5769C474.45 27.4464 474.426 27.3159 474.371 27.1972C474.316 27.0785 474.232 26.9754 474.126 26.8973C473.806 26.7192 473.441 26.6374 473.076 26.662H466.904C466.538 26.6292 466.17 26.7115 465.853 26.8973C465.743 26.9725 465.654 27.0743 465.594 27.1932C465.535 27.3121 465.506 27.4441 465.512 27.5769V32.282Z" fill="white"/>
<path d="M478.46 35.2624V24.5713H488.072V26.6625H480.613V35.2624H478.46Z" fill="white"/>
<path d="M492.878 35.2619C492.321 35.2779 491.764 35.2163 491.223 35.079C490.823 34.9714 490.447 34.7847 490.12 34.53C489.852 34.2747 489.645 33.9618 489.516 33.6151C489.396 33.2076 489.334 32.7852 489.333 32.3604V27.4723C489.334 27.0476 489.396 26.6252 489.516 26.2176C489.645 25.8786 489.852 25.5742 490.12 25.3289C490.439 25.056 490.816 24.8593 491.223 24.7538C491.764 24.6164 492.321 24.5548 492.878 24.5708H498.997C499.555 24.5581 500.111 24.6197 500.652 24.7538C501.059 24.8593 501.436 25.056 501.755 25.3289C502.023 25.5742 502.23 25.8786 502.359 26.2176C502.479 26.6252 502.541 27.0476 502.543 27.4723V32.3604C502.541 32.7852 502.479 33.2076 502.359 33.6151C502.23 33.9618 502.024 34.2747 501.755 34.53C501.428 34.7847 501.053 34.9714 500.652 35.079C500.111 35.2131 499.555 35.2746 498.997 35.2619H492.878ZM491.512 32.282C491.503 32.4088 491.528 32.5357 491.583 32.6503C491.638 32.7649 491.722 32.8632 491.827 32.9355C492.146 33.1165 492.512 33.1985 492.878 33.1708H498.997C499.363 33.1953 499.728 33.1136 500.048 32.9355C500.153 32.8632 500.237 32.7649 500.292 32.6503C500.348 32.5357 500.372 32.4088 500.363 32.282V27.5769C500.372 27.4464 500.347 27.3159 500.292 27.1972C500.237 27.0785 500.153 26.9754 500.048 26.8973C499.728 26.7192 499.363 26.6374 498.997 26.662H492.825C492.46 26.6343 492.094 26.7162 491.775 26.8973C491.67 26.9754 491.586 27.0785 491.531 27.1972C491.476 27.3159 491.451 27.4464 491.46 27.5769L491.512 32.282Z" fill="white"/>
<path d="M504.46 35.2624V24.5713H517.592V35.2624H515.464V26.6625H506.456V35.2624H504.46Z" fill="white"/>
<path d="M519.614 35.2619V24.5708H529.305C529.862 24.5548 530.419 24.6164 530.959 24.7538C531.371 24.8474 531.751 25.0456 532.062 25.3289C532.339 25.567 532.547 25.8736 532.666 26.2176C532.809 26.6207 532.88 27.0452 532.877 27.4723V28.7532C532.884 29.1807 532.813 29.6059 532.666 30.0079C532.554 30.3625 532.345 30.6792 532.062 30.9228C531.751 31.2061 531.371 31.4042 530.959 31.4978C530.417 31.6223 529.862 31.6837 529.305 31.6808H521.715V35.1574L519.614 35.2619ZM521.715 29.8249H529.331C529.689 29.8539 530.047 29.7717 530.355 29.5896C530.467 29.5226 530.558 29.426 530.619 29.3107C530.679 29.1954 530.706 29.0658 530.697 28.9361V27.5769C530.708 27.4434 530.682 27.3094 530.622 27.1895C530.561 27.0697 530.469 26.9686 530.355 26.8973C530.047 26.7152 529.689 26.633 529.331 26.662H521.715V29.8249Z" fill="white"/>
<path d="M537.683 35.2619C537.117 35.276 536.552 35.2145 536.002 35.079C535.607 34.9768 535.239 34.7894 534.925 34.53C534.648 34.2822 534.44 33.967 534.321 33.6151C534.189 33.2104 534.127 32.786 534.137 32.3604V27.4723C534.127 27.0467 534.189 26.6224 534.321 26.2176C534.44 25.8736 534.649 25.567 534.925 25.3289C535.234 25.0556 535.603 24.8586 536.002 24.7538C536.552 24.6183 537.117 24.5567 537.683 24.5708H543.829C544.386 24.5548 544.943 24.6164 545.483 24.7538C545.894 24.8474 546.275 25.0456 546.586 25.3289C546.863 25.567 547.071 25.8736 547.19 26.2176C547.323 26.6224 547.385 27.0467 547.374 27.4723V32.3604C547.385 32.786 547.323 33.2104 547.19 33.6151C547.072 33.967 546.864 34.2822 546.586 34.53C546.267 34.7976 545.889 34.9857 545.483 35.079C544.943 35.2163 544.386 35.2779 543.829 35.2619H537.683ZM536.291 32.282C536.282 32.4117 536.309 32.5413 536.369 32.6566C536.43 32.7719 536.521 32.8684 536.632 32.9355C536.941 33.1176 537.299 33.1998 537.657 33.1708H543.855C544.212 33.1998 544.57 33.1176 544.879 32.9355C544.991 32.8684 545.082 32.7719 545.142 32.6566C545.202 32.5413 545.23 32.4117 545.22 32.282V27.5769C545.232 27.4434 545.205 27.3094 545.145 27.1895C545.085 27.0697 544.993 26.9686 544.879 26.8973C544.57 26.7152 544.212 26.633 543.855 26.662H537.657C537.299 26.633 536.941 26.7152 536.632 26.8973C536.518 26.9686 536.426 27.0697 536.366 27.1895C536.306 27.3094 536.28 27.4434 536.291 27.5769V32.282Z" fill="white"/>
<path d="M552.521 33.8247C551.955 33.8388 551.39 33.7773 550.841 33.6417C550.441 33.537 550.072 33.34 549.764 33.0667C549.481 32.8231 549.272 32.5064 549.16 32.1518C549.025 31.7566 548.963 31.3404 548.976 30.9232V28.9366C548.965 28.511 549.027 28.0867 549.16 27.6819C549.272 27.3273 549.481 27.0106 549.764 26.767C550.064 26.4877 550.437 26.2976 550.841 26.2181C551.389 26.0728 551.954 26.0024 552.521 26.009H554.544V24.5713H556.645V26.1397H558.667C559.226 26.1312 559.783 26.2016 560.322 26.3488C560.735 26.4223 561.118 26.6129 561.425 26.8977C561.707 27.1413 561.916 27.458 562.029 27.8126C562.161 28.2174 562.223 28.6417 562.212 29.0673V31.0539C562.226 31.4711 562.163 31.8873 562.029 32.2825C561.916 32.6371 561.707 32.9538 561.425 33.1974C561.113 33.4807 560.733 33.6788 560.322 33.7724C559.781 33.9098 559.224 33.9714 558.667 33.9554H556.776V35.3931H554.675V33.9554L552.521 33.8247ZM551.129 30.8187C551.118 30.9522 551.144 31.0862 551.205 31.206C551.265 31.3259 551.357 31.427 551.471 31.4983C551.78 31.6803 552.137 31.7625 552.495 31.7335H554.544V28.1263H552.495C552.141 28.1042 551.788 28.1763 551.471 28.3354C551.359 28.4088 551.268 28.5102 551.208 28.6296C551.148 28.7489 551.121 28.8819 551.129 29.015V30.8187ZM556.645 31.7335H558.693C559.051 31.7625 559.409 31.6803 559.717 31.4983C559.831 31.427 559.924 31.3259 559.984 31.206C560.044 31.0862 560.07 30.9522 560.059 30.8187V29.015C560.067 28.8819 560.04 28.7489 559.98 28.6296C559.92 28.5102 559.829 28.4088 559.717 28.3354C559.401 28.1763 559.047 28.1042 558.693 28.1263H556.776L556.645 31.7335Z" fill="white"/>
<path d="M565.443 35.1576C565.346 35.2514 565.229 35.3228 565.101 35.3667H564.734C564.606 35.367 564.48 35.3417 564.363 35.2923C564.245 35.2429 564.139 35.1704 564.051 35.0792C563.944 34.9795 563.86 34.8576 563.805 34.7221C563.751 34.5865 563.727 34.4407 563.736 34.295V24.571H565.863V32.2561L575.291 24.6756C575.399 24.5892 575.525 24.5268 575.659 24.4926C575.772 24.4686 575.888 24.4686 576 24.4926C576.265 24.4963 576.518 24.5989 576.71 24.7802C576.906 24.9935 577.01 25.2753 576.998 25.5643V35.3406H574.897V27.6032L565.443 35.1576Z" fill="white"/>
<path d="M578.154 35.2624V33.1712H579.94L584.142 24.5713H591.365V35.2624H589.264V26.6625H585.666L581.463 35.2624H578.154Z" fill="white"/>
<path d="M593.282 35.2624V24.5713H595.409V28.0479H602.999C603.558 28.0394 604.115 28.1098 604.654 28.257C605.06 28.3502 605.438 28.5384 605.757 28.8059C606.031 29.0567 606.238 29.3709 606.361 29.7208C606.493 30.1256 606.556 30.5499 606.545 30.9755V32.3609C606.556 32.7865 606.493 33.2108 606.361 33.6156C606.232 33.9623 606.025 34.2752 605.757 34.5305C605.43 34.7852 605.055 34.9718 604.654 35.0794C604.113 35.2168 603.556 35.2784 602.999 35.2624H593.282ZM595.409 33.1712H602.999C603.365 33.1989 603.731 33.117 604.05 32.936C604.155 32.8637 604.239 32.7654 604.294 32.6508C604.349 32.5362 604.374 32.4093 604.365 32.2825V30.9232C604.373 30.7928 604.349 30.6623 604.294 30.5436C604.239 30.4249 604.155 30.3217 604.05 30.2436C603.731 30.0626 603.365 29.9806 602.999 30.0083H595.409V33.1712Z" fill="white"/>
<path d="M607.858 35.2624V24.5713H609.985V27.9956H619.019V24.5713H621.147V35.2624H619.019V30.0345H609.985V35.2624H607.858Z" fill="white"/>
<path d="M623.064 35.2624V24.5713H625.165V28.0479H632.755C633.314 28.0394 633.871 28.1098 634.41 28.257C634.832 28.318 635.231 28.4894 635.565 28.7536C635.848 28.9972 636.057 29.3139 636.169 29.6685C636.302 30.0733 636.364 30.4976 636.353 30.9232V32.3086C636.364 32.7342 636.302 33.1586 636.169 33.5633C636.051 33.9152 635.843 34.2304 635.565 34.4782C635.246 34.7457 634.868 34.9339 634.462 35.0271C633.922 35.1645 633.365 35.2261 632.808 35.2101L623.064 35.2624ZM625.165 33.1712H632.781C633.139 33.2002 633.497 33.118 633.806 32.936C633.917 32.8689 634.008 32.7724 634.069 32.6571C634.129 32.5418 634.156 32.4121 634.147 32.2825V30.9232C634.158 30.7897 634.132 30.6557 634.072 30.5359C634.012 30.416 633.919 30.3149 633.806 30.2436C633.497 30.0615 633.139 29.9793 632.781 30.0083H625.06L625.165 33.1712ZM637.745 35.2624V24.5713H639.846V35.2624H637.745Z" fill="white"/>
<path d="M643.602 35.1574C643.5 35.2456 643.385 35.3163 643.26 35.3666H642.892C642.754 35.367 642.618 35.3389 642.491 35.2842C642.365 35.2294 642.251 35.1492 642.157 35.0485C642.064 34.9478 641.992 34.8288 641.947 34.6991C641.901 34.5694 641.884 34.4317 641.894 34.2948V24.5709H643.996V32.2559L653.45 24.6755C653.549 24.5896 653.665 24.527 653.792 24.4925C653.913 24.4678 654.038 24.4678 654.159 24.4925C654.287 24.4921 654.413 24.5174 654.53 24.5668C654.648 24.6163 654.754 24.6888 654.842 24.78C654.948 24.8807 655.031 25.0028 655.085 25.1381C655.139 25.2734 655.164 25.4187 655.157 25.5642V35.3404H653.03V27.6031L643.602 35.1574ZM648.171 23.8651C647.852 23.8705 647.537 23.7988 647.252 23.656C647.028 23.4984 646.833 23.3039 646.674 23.0809C646.529 22.8621 646.414 22.6247 646.333 22.3752C646.31 22.1579 646.31 21.9389 646.333 21.7217H647.41C647.398 21.8696 647.398 22.0181 647.41 22.1661C647.443 22.324 647.506 22.4746 647.594 22.6104C647.669 22.7546 647.777 22.8798 647.909 22.9764C648.061 23.0627 648.233 23.1078 648.408 23.1071H648.697C648.863 23.1069 649.027 23.0618 649.169 22.9764C649.286 22.8715 649.383 22.7478 649.458 22.6104C649.538 22.4733 649.591 22.3226 649.616 22.1661C649.627 22.0181 649.627 21.8696 649.616 21.7217H650.693C650.674 22.2034 650.529 22.672 650.272 23.0809C650.131 23.309 649.943 23.505 649.721 23.656C649.455 23.7986 649.156 23.8706 648.854 23.8651H648.171Z" fill="white"/>
<path d="M427.536 56.9841V46.293H440.667V56.9841H438.592V48.3841H429.663V56.9841H427.536Z" fill="white"/>
<path d="M442.689 56.9846V46.2935H452.407C452.964 46.2775 453.521 46.3391 454.061 46.4765C454.462 46.584 454.837 46.7707 455.164 47.0254C455.433 47.2807 455.64 47.5936 455.768 47.9403C455.901 48.345 455.963 48.7694 455.952 49.195V50.5804C455.963 51.006 455.901 51.4303 455.768 51.8351C455.646 52.1849 455.438 52.4992 455.164 52.75C454.85 53.0239 454.47 53.2129 454.061 53.2989C453.523 53.4461 452.965 53.5165 452.407 53.508H444.817V56.9846H442.689ZM444.817 51.5476H452.407C452.773 51.5752 453.139 51.4933 453.457 51.3123C453.562 51.24 453.647 51.1417 453.702 51.0271C453.757 50.9125 453.781 50.7856 453.772 50.6588V49.2995C453.784 49.1688 453.76 49.0374 453.705 48.9183C453.65 48.7992 453.564 48.6964 453.457 48.6199C453.139 48.4389 452.773 48.357 452.407 48.3847H444.817V51.5476Z" fill="white"/>
<path d="M460.758 56.9846C460.201 57.0006 459.644 56.939 459.104 56.8016C458.703 56.694 458.328 56.5074 458.001 56.2527C457.732 55.9974 457.526 55.6845 457.397 55.3378C457.277 54.9302 457.215 54.5079 457.213 54.0831V49.195C457.215 48.7702 457.277 48.3479 457.397 47.9403C457.526 47.5936 457.732 47.2807 458.001 47.0254C458.328 46.7707 458.703 46.584 459.104 46.4765C459.644 46.3391 460.201 46.2775 460.758 46.2935H466.93C467.487 46.2808 468.044 46.3423 468.585 46.4765C468.986 46.584 469.361 46.7707 469.688 47.0254C469.956 47.2807 470.163 47.5936 470.292 47.9403C470.412 48.3479 470.474 48.7702 470.476 49.195V54.0831C470.474 54.5079 470.412 54.9302 470.292 55.3378C470.163 55.6845 469.956 55.9974 469.688 56.2527C469.361 56.5074 468.986 56.694 468.585 56.8016C468.044 56.9358 467.487 56.9973 466.93 56.9846H460.758ZM459.393 54.0047C459.384 54.1315 459.408 54.2584 459.463 54.373C459.519 54.4876 459.603 54.5859 459.708 54.6582C460.027 54.8392 460.392 54.9211 460.758 54.8934H466.93C467.296 54.918 467.661 54.8363 467.981 54.6582C468.086 54.5859 468.17 54.4876 468.225 54.373C468.281 54.2584 468.305 54.1315 468.296 54.0047V49.2995C468.307 49.1688 468.284 49.0374 468.228 48.9183C468.173 48.7992 468.088 48.6964 467.981 48.6199C467.661 48.4418 467.296 48.3601 466.93 48.3847H460.758C460.392 48.357 460.027 48.4389 459.708 48.6199C459.601 48.6964 459.515 48.7992 459.46 48.9183C459.405 49.0374 459.382 49.1688 459.393 49.2995V54.0047Z" fill="white"/>
<path d="M475.597 55.5463C475.04 55.5493 474.485 55.4878 473.942 55.3634C473.508 55.3044 473.094 55.1431 472.734 54.8928C472.46 54.6421 472.253 54.3278 472.13 53.978C472.006 53.5713 471.944 53.1483 471.946 52.7232V50.7628C471.944 50.3377 472.006 49.9148 472.13 49.5081C472.253 49.1582 472.46 48.844 472.734 48.5932C473.053 48.3203 473.43 48.1236 473.837 48.0181C474.38 47.8936 474.935 47.8322 475.492 47.8351H477.514V46.3975H479.641V47.8351H481.664C482.22 47.8354 482.775 47.8967 483.318 48.0181C483.725 48.1236 484.102 48.3203 484.421 48.5932C484.695 48.844 484.903 49.1582 485.025 49.5081C485.15 49.9148 485.212 50.3377 485.209 50.7628V52.7232C485.212 53.1483 485.15 53.5713 485.025 53.978C484.903 54.3278 484.695 54.6421 484.421 54.8928C484.102 55.1657 483.725 55.3624 483.318 55.4679C482.775 55.5893 482.22 55.6507 481.664 55.6509H479.641V57.0886H477.514V55.6509L475.597 55.5463ZM474.231 52.5403C474.223 52.6707 474.247 52.8012 474.302 52.9199C474.357 53.0386 474.441 53.1417 474.546 53.2199C474.868 53.3919 475.234 53.4647 475.597 53.429H477.619V49.8479H475.597C475.234 49.8122 474.868 49.885 474.546 50.057C474.441 50.1352 474.357 50.2383 474.302 50.357C474.247 50.4757 474.223 50.6062 474.231 50.7366V52.5403ZM479.746 53.429H481.769C482.132 53.4601 482.496 53.3875 482.819 53.2199C482.925 53.1417 483.009 53.0386 483.064 52.9199C483.119 52.8012 483.143 52.6707 483.134 52.5403V50.7366C483.143 50.6062 483.119 50.4757 483.064 50.357C483.009 50.2383 482.925 50.1352 482.819 50.057C482.496 49.8894 482.132 49.8168 481.769 49.8479H479.746V53.429Z" fill="white"/>
<path d="M486.838 56.9841V46.293H499.969V48.3841H488.86V49.7957H497.947V51.7562H488.86V54.8929H500.022V56.9841H486.838Z" fill="white"/>
<path d="M505.169 56.9846C504.612 57.0006 504.055 56.939 503.515 56.8016C503.114 56.694 502.739 56.5074 502.412 56.2527C502.143 55.9974 501.936 55.6845 501.808 55.3378C501.687 54.9302 501.626 54.5079 501.624 54.0831V49.195C501.626 48.7702 501.687 48.3479 501.808 47.9403C501.936 47.5936 502.143 47.2807 502.412 47.0254C502.739 46.7707 503.114 46.584 503.515 46.4765C504.055 46.3391 504.612 46.2775 505.169 46.2935H514.755V48.3847H505.064C504.699 48.3601 504.334 48.4418 504.014 48.6199C503.907 48.6964 503.821 48.7992 503.766 48.9183C503.711 49.0374 503.687 49.1688 503.699 49.2995V54.0047C503.69 54.1315 503.714 54.2584 503.769 54.373C503.824 54.4876 503.909 54.5859 504.014 54.6582C504.334 54.8363 504.699 54.918 505.064 54.8934H514.782V56.9846H505.169Z" fill="white"/>
<path d="M520.008 56.9846C519.45 57.0006 518.893 56.939 518.353 56.8016C517.952 56.694 517.577 56.5074 517.25 56.2527C516.981 55.9974 516.775 55.6845 516.646 55.3378C516.513 54.933 516.451 54.5087 516.462 54.0831V49.195C516.451 48.7694 516.513 48.345 516.646 47.9403C516.775 47.5936 516.981 47.2807 517.25 47.0254C517.577 46.7707 517.952 46.584 518.353 46.4765C518.893 46.3391 519.45 46.2775 520.008 46.2935H529.699V48.3847H520.008C519.642 48.357 519.276 48.4389 518.957 48.6199C518.85 48.6964 518.765 48.7992 518.709 48.9183C518.654 49.0374 518.631 49.1688 518.642 49.2995V54.0047C518.633 54.1315 518.657 54.2584 518.713 54.373C518.768 54.4876 518.852 54.5859 518.957 54.6582C519.276 54.8392 519.642 54.9211 520.008 54.8934H529.725V56.9846H520.008Z" fill="white"/>
<path d="M532.956 56.8797C532.854 56.9679 532.739 57.0386 532.614 57.0889H532.246C532.109 57.0893 531.972 57.0612 531.845 57.0065C531.719 56.9517 531.605 56.8715 531.511 56.7708C531.418 56.6701 531.346 56.5511 531.301 56.4214C531.255 56.2917 531.238 56.154 531.248 56.0171V46.2932H533.35V53.9521L542.804 46.3978C542.896 46.3026 543.015 46.2385 543.146 46.2148C543.267 46.1901 543.392 46.1901 543.513 46.2148C543.641 46.2144 543.767 46.2397 543.884 46.2891C544.002 46.3386 544.108 46.4111 544.196 46.5023C544.303 46.6019 544.387 46.7239 544.442 46.8594C544.496 46.9949 544.52 47.1408 544.511 47.2865V56.9843H542.384V49.3254L532.956 56.8797Z" fill="white"/>
<path d="M549.921 56.9846C549.355 57.0003 548.79 56.9387 548.24 56.8016C547.845 56.6994 547.478 56.512 547.164 56.2527C546.886 56.0049 546.678 55.6897 546.56 55.3378C546.427 54.933 546.365 54.5087 546.376 54.0831V49.195C546.365 48.7694 546.427 48.345 546.56 47.9403C546.678 47.5884 546.886 47.2732 547.164 47.0254C547.478 46.7661 547.845 46.5787 548.24 46.4765C548.79 46.3393 549.355 46.2778 549.921 46.2935H556.067C556.624 46.2775 557.181 46.3391 557.721 46.4765C558.122 46.584 558.497 46.7707 558.824 47.0254C559.093 47.2807 559.3 47.5936 559.428 47.9403C559.561 48.345 559.623 48.7694 559.612 49.195V54.0831C559.623 54.5087 559.561 54.933 559.428 55.3378C559.3 55.6845 559.093 55.9974 558.824 56.2527C558.497 56.5074 558.122 56.694 557.721 56.8016C557.181 56.939 556.624 57.0006 556.067 56.9846H549.921ZM548.529 54.0047C548.52 54.1343 548.547 54.264 548.608 54.3793C548.668 54.4946 548.759 54.5911 548.871 54.6582C549.179 54.8402 549.537 54.9224 549.895 54.8934H556.093C556.451 54.9224 556.809 54.8402 557.117 54.6582C557.225 54.5871 557.313 54.4898 557.373 54.3755C557.433 54.2611 557.462 54.1335 557.459 54.0047V49.2995C557.467 49.1664 557.44 49.0334 557.38 48.9141C557.32 48.7947 557.229 48.6933 557.117 48.6199C556.809 48.4379 556.451 48.3557 556.093 48.3847H549.895C549.537 48.3557 549.179 48.4379 548.871 48.6199C548.755 48.689 548.661 48.7897 548.6 48.9101C548.54 49.0305 548.515 49.1657 548.529 49.2995V54.0047Z" fill="white"/>
<path d="M561.477 56.9841V46.293H563.578V49.665H572.534V46.293H574.635V56.9841H572.534V51.7562H563.473V56.9841H561.477Z" fill="white"/>
<path d="M576.631 56.9841V49.9264C576.608 49.4413 576.69 48.957 576.871 48.5061C577.053 48.0551 577.329 47.6481 577.681 47.3125C578.557 46.619 579.665 46.2826 580.78 46.3714H585.665C586.781 46.2826 587.889 46.619 588.764 47.3125C589.117 47.6481 589.393 48.0551 589.574 48.5061C589.756 48.957 589.838 49.4413 589.815 49.9264V56.9841H587.688V53.5598H578.653V56.9841H576.631ZM578.732 51.6255H587.766V49.9264C587.796 49.7008 587.796 49.4724 587.766 49.2468C587.693 49.0646 587.576 48.903 587.425 48.7763C587.243 48.629 587.026 48.5301 586.795 48.4887C586.464 48.4415 586.128 48.4415 585.797 48.4887H580.886C580.555 48.4415 580.219 48.4415 579.888 48.4887C579.656 48.5301 579.44 48.629 579.257 48.7763C579.099 48.8958 578.98 49.0596 578.916 49.2468C578.886 49.4724 578.886 49.7008 578.916 49.9264L578.732 51.6255Z" fill="white"/>
<path d="M590.918 56.9841V54.8929H592.704L596.906 46.293H604.128V56.9841H602.027V48.3841H598.298L594.096 56.9841H590.918Z" fill="white"/>
<path d="M606.15 56.9841V46.293H608.251V49.665H615.841C616.409 49.6585 616.974 49.7288 617.522 49.8741C617.926 49.9536 618.299 50.1438 618.599 50.423C618.889 50.6595 619.1 50.9787 619.203 51.3379C619.345 51.741 619.416 52.1655 619.413 52.5926V53.978C619.416 54.4052 619.345 54.8296 619.203 55.2327C619.094 55.5892 618.885 55.9069 618.599 56.1476C618.285 56.4069 617.917 56.5943 617.522 56.6965C616.973 56.8321 616.407 56.8936 615.841 56.8795L606.15 56.9841ZM608.251 54.8929H615.868C616.233 54.9175 616.598 54.8357 616.918 54.6576C617.023 54.5853 617.108 54.4871 617.163 54.3725C617.218 54.2579 617.242 54.1309 617.233 54.0042V52.6188C617.242 52.492 617.218 52.365 617.163 52.2505C617.108 52.1359 617.023 52.0376 616.918 51.9653C616.598 51.7872 616.233 51.7054 615.868 51.73H608.251V54.8929Z" fill="white"/>
<path d="M620.727 56.9841V46.293H622.828V49.665H631.888V46.293H633.989V56.9841H631.888V51.7562H622.828V56.9841H620.727Z" fill="white"/>
<path d="M635.906 56.9841V46.293H638.034V49.665H645.624C646.182 49.6565 646.74 49.7269 647.278 49.8741C647.687 49.9602 648.067 50.1492 648.381 50.423C648.655 50.6738 648.863 50.9881 648.985 51.3379C649.118 51.7427 649.18 52.167 649.169 52.5926V53.978C649.18 54.4036 649.118 54.828 648.985 55.2327C648.857 55.5794 648.65 55.8923 648.381 56.1476C648.054 56.4023 647.679 56.589 647.278 56.6965C646.738 56.8339 646.181 56.8955 645.624 56.8795L635.906 56.9841ZM638.034 54.8929H645.624C645.99 54.9206 646.356 54.8387 646.674 54.6576C646.779 54.5853 646.864 54.4871 646.919 54.3725C646.974 54.2579 646.998 54.1309 646.989 54.0042V52.6188C646.998 52.492 646.974 52.365 646.919 52.2505C646.864 52.1359 646.779 52.0376 646.674 51.9653C646.356 51.7842 645.99 51.7023 645.624 51.73H638.034V54.8929ZM650.614 56.9841V46.293H652.715V56.9841H650.614Z" fill="white"/>
<path d="M656.576 56.8801C656.479 56.974 656.362 57.0454 656.234 57.0892H655.866C655.61 57.0842 655.366 56.9812 655.184 56.8017C655.08 56.7008 655 56.5779 654.95 56.4422C654.9 56.3065 654.881 56.1614 654.895 56.0175V46.2936H656.996V53.9525L666.424 46.3981C666.526 46.3023 666.654 46.2387 666.792 46.2151C666.913 46.1905 667.038 46.1905 667.16 46.2151C667.416 46.2201 667.66 46.3231 667.842 46.5027C667.941 46.6075 668.017 46.7309 668.067 46.8656C668.116 47.0003 668.138 47.1436 668.131 47.2869V56.9847H666.03V49.3258L656.576 56.8801ZM661.145 45.5878C660.831 45.5968 660.521 45.5151 660.252 45.3525C660.024 45.2113 659.827 45.0244 659.675 44.8036C659.529 44.5848 659.414 44.3474 659.333 44.0978C659.312 43.8805 659.312 43.6617 659.333 43.4443H660.436C660.412 43.5915 660.412 43.7416 660.436 43.8887C660.461 44.0453 660.514 44.1959 660.594 44.3331C660.687 44.473 660.802 44.5967 660.935 44.699C661.099 44.7435 661.271 44.7435 661.434 44.699H661.802C661.948 44.7404 662.103 44.7404 662.248 44.699C662.38 44.6025 662.488 44.4773 662.564 44.3331L662.721 43.8887C662.733 43.7408 662.733 43.5922 662.721 43.4443H663.798C663.819 43.6617 663.819 43.8805 663.798 44.0978C663.738 44.3505 663.631 44.5899 663.483 44.8036C663.333 45.0177 663.146 45.2036 662.931 45.3525C662.665 45.5195 662.353 45.6015 662.038 45.5878H661.145Z" fill="white"/>
<path d="M427.536 78.7063V67.9629H429.663V71.9884H430.924L437.463 67.9629H441.481L433.051 72.9033L441.98 78.654H438.093L430.924 73.8443H429.663V78.654L427.536 78.7063Z" fill="white"/>
<path d="M445.788 78.7063C445.222 78.7204 444.657 78.6588 444.108 78.5233C443.713 78.4211 443.345 78.2337 443.031 77.9744C442.759 77.7216 442.552 77.4079 442.427 77.0595C442.294 76.6547 442.232 76.2304 442.243 75.8048V70.9167C442.232 70.4911 442.294 70.0667 442.427 69.662C442.545 69.3101 442.753 68.9949 443.031 68.7471C443.345 68.4877 443.713 68.3003 444.108 68.1981C444.657 68.0626 445.222 68.0011 445.788 68.0152H451.934C452.491 67.9992 453.048 68.0608 453.589 68.1981C453.995 68.2914 454.373 68.4796 454.692 68.7471C454.969 68.9949 455.177 69.3101 455.296 69.662C455.428 70.0667 455.49 70.4911 455.479 70.9167V75.8048C455.49 76.2304 455.428 76.6547 455.296 77.0595C455.17 77.4079 454.963 77.7216 454.692 77.9744C454.373 78.2419 453.995 78.4301 453.589 78.5233C453.048 78.6607 452.491 78.7223 451.934 78.7063H445.788ZM444.397 75.8048C444.385 75.9383 444.411 76.0723 444.472 76.1921C444.532 76.312 444.624 76.4131 444.738 76.4844C445.047 76.6665 445.405 76.7487 445.762 76.7197H451.96C452.318 76.7487 452.676 76.6665 452.984 76.4844C453.098 76.4131 453.191 76.312 453.251 76.1921C453.311 76.0723 453.337 75.9383 453.326 75.8048V71.0996C453.335 70.97 453.308 70.8404 453.248 70.7251C453.187 70.6097 453.096 70.5132 452.984 70.4462C452.676 70.2641 452.318 70.1819 451.96 70.2109H445.762C445.405 70.1819 445.047 70.2641 444.738 70.4462C444.626 70.5132 444.535 70.6097 444.475 70.7251C444.415 70.8404 444.387 70.97 444.397 71.0996V75.8048Z" fill="white"/>
<path d="M456.583 78.7067V76.6156H458.368L462.57 68.0156H469.793V78.7067H467.692V70.1068H463.989L459.787 78.7067H456.583Z" fill="white"/>
<path d="M470.975 78.7063V76.6151H472.734L476.936 67.9629H484.185V78.654H482.058V70.1063H478.355L474.152 78.7063H470.975Z" fill="white"/>
<path d="M486.102 78.7063V67.9629H499.234V70.0541H488.125V71.4656H497.212V73.4261H488.125V76.5628H499.26V78.654L486.102 78.7063Z" fill="white"/>
<path d="M500.179 82.0003V76.6156H501.965L506.167 68.0156H513.389V76.6156H515.517V82.0003H513.389V78.7067H502.306V82.0003H500.179ZM504.381 76.6156H511.288V70.1068H507.585L504.381 76.6156Z" fill="white"/>
<path d="M514.755 78.7063L523.737 72.9817L515.28 67.9629H519.561L525.891 71.9884H526.232V67.9629H528.359V71.9884H528.727L535.03 67.9629H539.311L530.828 72.9294L539.81 78.654H535.897L528.727 73.8443H528.359V78.654H526.232V73.8966H525.891L518.721 78.7063H514.755Z" fill="white"/>
<path d="M397.097 23.9182H385.147L371.175 12.5213L357.177 23.9182H345.227L371.149 2.74512L397.097 23.9182ZM381.891 60.7228L371.175 69.4796L360.434 60.7228L354.393 65.5586L371.175 79.2558L387.957 65.5586L381.891 60.7228ZM392.212 62.0559C392.212 62.0559 413.485 44.4117 417.818 41.1442C417.818 41.1442 404.083 29.6166 403.925 29.6166H379.002C379.002 29.6166 377.505 30.7407 375.614 32.2306L381.418 36.8573L381.628 36.7005H400.721L405.974 41.0919L391.871 52.5672C387.301 48.8816 381.365 44.0457 376.769 40.4646L363.638 29.5644H338.373L324.27 41.0919L350.034 62.0036C350.034 62.0036 364.216 50.7113 366.947 48.5679L361.169 43.9673C359.016 45.6925 351.925 51.1818 350.296 52.515L336.167 41.0135L341.603 36.5959H360.775L364.557 39.6543L365.424 40.3339C365.424 40.3339 384.543 55.6779 392.212 62.0559Z" fill="white"/>
<path d="M22.3761 74.9682C18.8362 75.0337 15.3034 74.6293 11.8709 73.7657C9.33999 73.1327 6.98697 71.935 4.98996 70.263C3.25704 68.6935 1.94765 66.7162 1.18182 64.5123C0.359771 61.9802 -0.0394734 59.3311 -1.57955e-05 56.6704V25.8518C-0.0413807 23.191 0.35791 20.5416 1.18182 18.0099C1.93354 15.7842 3.24441 13.7866 4.98996 12.2069C6.98697 10.535 9.33999 9.33722 11.8709 8.70422C15.301 7.82769 18.8356 7.42312 22.3761 7.5018H75.9526V20.7546H22.271C20.0084 20.5873 17.7457 21.0777 15.7578 22.1661C15.0675 22.6288 14.5105 23.2629 14.142 24.0056C13.7735 24.7483 13.6063 25.5739 13.6568 26.4007V56.0692C13.6063 56.896 13.7735 57.7216 14.142 58.4643C14.5105 59.2071 15.0675 59.8411 15.7578 60.3038C17.7534 61.3972 20.0259 61.8878 22.2973 61.7154L76.1628 61.271V74.4977L22.3761 74.9682Z" fill="white"/>
<path d="M181.74 74.9685V17.1476C181.74 14.5895 182.761 12.1361 184.578 10.3272C186.396 8.51832 188.861 7.50209 191.431 7.50209H255.513C256.79 7.49521 258.056 7.73961 259.238 8.22126C260.419 8.7029 261.494 9.4123 262.399 10.3087C263.305 11.205 264.023 12.2707 264.514 13.4443C265.004 14.618 265.256 15.8765 265.256 17.1476V74.9685H251.889V20.7549H195.055V74.9685H181.74Z" fill="white"/>
<path d="M168.792 8.65255C167.572 7.61044 166.014 7.04393 164.407 7.05804C163.321 7.06043 162.245 7.25517 161.229 7.63311C160.164 8.03264 159.21 8.67762 158.445 9.51516L128.951 41.5101L99.4843 9.51516C98.6708 8.69798 97.6961 8.0572 96.6217 7.63311C95.633 7.25332 94.5824 7.05836 93.5226 7.05804C91.9064 7.03996 90.3385 7.60657 89.1105 8.65255C88.4473 9.25292 87.93 9.9956 87.5978 10.8244C87.2657 11.6531 87.1273 12.5462 87.1933 13.4361V74.8904H100.482V29.6949L120.153 51.051L125.406 56.7495C125.856 57.2434 126.406 57.6381 127.019 57.9082C127.631 58.1783 128.294 58.3179 128.965 58.3179C129.635 58.3179 130.298 58.1783 130.911 57.9082C131.523 57.6381 132.073 57.2434 132.523 56.7495L137.776 51.051L157.447 29.6949V74.8904H170.71V13.4361C170.772 12.5442 170.63 11.6498 170.293 10.8209C169.956 9.99198 169.434 9.25042 168.766 8.65255" fill="white"/>
<path d="M332.332 65.0353L304.94 41.2483L344.046 7.39746H327.631L315.156 18.2977L294.619 36.0988C294.09 36.5629 293.439 36.865 292.742 36.9686C292.045 37.0723 291.333 36.973 290.692 36.6829C290.05 36.3927 289.507 35.924 289.127 35.3334C288.748 34.7427 288.548 34.0553 288.552 33.3541V7.4236H276.366V74.89H288.552V50.1096C288.546 49.4162 288.739 48.7356 289.109 48.148C289.479 47.5605 290.01 47.0905 290.639 46.7937C291.269 46.4969 291.971 46.3856 292.662 46.4729C293.353 46.5602 294.005 46.8425 294.54 47.2865L315.104 64.225L328.235 74.9422H329.181H330.1H343.783L332.7 65.349L332.332 65.0353Z" fill="white"/>
</g>
<defs>
<clipPath id="clip0_511_23">
<rect width="668" height="82" fill="white"/>
</clipPath>
</defs>
</svg>
